<svg xmlns="http://www.w3.org/2000/svg" width="1365.333" height="1365.333" version="1.0"
  viewBox="0 0 1024 1024">
  <path
    d="M497.5 135.8c-.2.2-2.3.6-4.7.8-9.3.8-16.4 1.5-18.3 1.9-1.1.3-3.6.7-5.5 1-10.8 1.5-24.4 5-38.2 9.5-48.9 16.2-92.4 47-124.2 88.2-3.6 4.7-6.6 9.1-6.6 9.7 0 .5-.6 1.4-1.3 1.8-1.5 1-6.7 8.9-6.7 10.2 0 .5-.3 1.1-.7 1.3-2.9 1.2-22.4 42.6-24.9 52.7-.2.9-1.5 5.4-2.9 10s-2.7 9.3-3 10.5c-.8 3.8-2.5 12-3 14.8-.3 1.6-.8 4.3-1.1 6-3.7 20.4-3.9 60-.4 78.3.5 2.7 1.1 6.1 1.4 7.5 1.2 7.4 2.1 11.4 4.3 20 2.3 9.1 6.4 22.3 8.3 26.5.5 1.1 3 6.9 5.6 13 2.5 6 6.2 13.6 8 16.8 1.9 3.2 3.4 6 3.4 6.2 0 .2 2.7 4.8 6 10.4 3.2 5.5 7.2 12.4 8.8 15.3 3 5.6 3.8 7 16.2 28.8 4.2 7.5 7.9 14.2 8.3 15 .4.8 1.7 3.1 2.8 5 2 3.4 19.2 33.9 24 42.8 1.3 2.4 2.9 5.1 3.4 6 .6.9 4.3 7.5 8.3 14.7 4 7.1 7.7 13.7 8.2 14.5.5.8 4.8 8.5 9.6 17 7.7 13.9 11.9 21.3 20.9 37.5 1.6 2.7 7.5 13.3 13.3 23.5 5.7 10.2 11.7 20.7 13.2 23.5 1.5 2.7 13 23.2 25.5 45.5s23.7 42.3 24.9 44.5c1.2 2.2 4.1 7.3 6.5 11.3 2.4 4.1 5.2 9.2 6.2 11.5 1.1 2.3 3.3 6.2 4.9 8.7 1.6 2.5 2.9 5.3 2.9 6.2.1.9 1.1 2.8 2.4 4.2 1.3 1.3 3.5 4.8 5.1 7.8 5.3 10.1 7.9 13.2 11.9 14.1 5.4 1.3 7.5-.5 12.9-10.9 2.5-4.9 7.8-15.2 11.8-22.9 4-7.7 10-19.4 13.5-26 11.8-22.6 20.3-39 29-56 4.8-9.4 10.4-20.2 12.5-24 5.6-10.5 7.8-14.9 7.6-15.5 0-.3.8-1.9 2-3.5 1.1-1.7 5.6-10 9.9-18.5 4.3-8.5 8.6-16.9 9.6-18.7 1-1.7 6.1-11.6 11.5-22 5.3-10.3 12-23.3 14.9-28.8 2.9-5.5 9-17.2 13.5-26s11.2-21.6 14.8-28.5c3.5-6.9 9.8-19 14-27 4.1-8 9.9-19.2 13-25 3-5.8 9-17.5 13.4-26s10.4-20 13.3-25.5c2.9-5.5 5-10.6 4.8-11.3-.3-.7-.1-1.8.5-2.5 1.6-2 9.2-19.6 12.9-29.7 7-19.4 12.5-43.7 14-63 .4-4.1.7-8.7.7-10.3.1-1.5.4-2.7.7-2.7.7 0 .4-23.3-.4-27.5-.3-1.7-.9-6.3-1.2-10.4-.4-4.1-.9-8.4-1.1-9.5-.2-1.2-.7-4.1-1-6.6-.4-2.5-1-5.4-1.5-6.6-.4-1.2-.6-2.4-.3-2.6 1.1-1.1-8.5-32.5-14.6-47.8-4.8-12.2-23.6-46.3-27-49-.3-.3-1.7-2.1-3-4-9-13.1-33.9-39.4-45.1-47.7-3.1-2.3-6.3-4.8-7.1-5.6-2.8-2.8-27.2-18.4-35.8-22.9-4.7-2.4-12.8-6.3-18-8.5-15.7-6.8-38.9-14.3-49.2-15.8-1.5-.2-4.5-.9-6.8-1.5s-4.4-.9-4.7-.7c-.2.3-1.8.1-3.5-.4-1.7-.4-6.3-1.1-10.2-1.5-6.9-.7-10.1-1.1-10.1-1.4 0-.1-1.2-.3-2.7-.4-1.6-.1-2.8.3-2.8.9 0 .6-.3.6-.8-.1-.6-1-25.7-1.6-26.7-.6zM530 302c34.1 5.7 63.7 27.6 78.7 58 6.5 13.2 9.2 22.4 11 37 2.6 21.8-2.7 46.4-14.5 66.5-8.1 13.9-22.4 28.4-36.7 37.2-6.7 4.2-21.9 10.9-26.9 11.9-1.1.2-3.2.7-4.6 1-49.1 10.8-97.6-11.6-120.4-55.6-7.7-14.9-11.5-29.4-12-45.8-.5-19.3 2.3-32.4 10.5-49.9 9.8-21.1 25.9-38 46.3-48.9 21.3-11.3 45.4-15.3 68.6-11.4z" />
</svg>
